<svg xmlns="http://www.w3.org/2000/svg" xml:space="preserve" id="BearStudio" x="0" y="0" width="182" height="40" version="1.1" viewBox="0 0 1000 220">
  <style>
    .st0{fill:#00404c}
  </style>
  <path d="M103.3 120.1c-13.3-4-27-6.6-40.8-7.7-22.2-1.8-45.3.6-53.5 1.6 1.6 10.8 4.6 21.4 8.8 31.6l14.9-2.8c7.7-1.1 15.4-1.7 23.1-1.9 5.6-.2 11.3-.1 16.9.4l-2.8-10.5c44.5 0 80.6 16.6 105 32.4l19.7 14.4.1.1c3.5-4.7 6.8-9.5 9.8-14.6-44.8-39.8-104-58-104-58l2.8 15zM76.6 55.6l-.1 13.6c-19.4-7.3-39.6-12.6-60.1-15.7l-3.1-.3c-.3 1.1-.5 2.3-.8 3.4-2 7.7-3.4 15.4-4.3 23.3l6.4.3 20.1 1.6c9.2 1 17.3 2.4 24.1 3.8 16.8 3.4 25.5 7 25.5 7l-.5-11.1c37.7 11.2 68.6 30.8 92 50.4l19.6 17.8c3.8 3.7 7.2 7.3 10.4 10.8 2.9-5.1 5.5-10.4 7.8-15.8-53-60.5-137-89.1-137-89.1zM27 25.7c5.9 1.6 9.5 2.7 9.5 2.7 2.6.9 5 1.8 7.3 2.7 10.2 3.8 15.8 6.5 15.8 6.5V24.8c51.2 19.3 90 48.6 117.4 75.1l19.5 20.5c7.3 8.3 13.3 15.9 18 22.3C258 30.3 82.2-39.6 27 25.7zm60.6 124.9 2.9 11.1c-17.6.1-35 2.9-51.7 8.3-2 .7-4 1.4-6.1 2.1 38.1 52.5 111.2 70.3 160.8 6.9-3.3-2.1-7.1-4.4-11.6-6.8-44.7-23.6-94.3-21.6-94.3-21.6zm297.8-67.9c-1.9 8-6.8 15.3-14.7 21.8-7.6 5.3-15.1 10.6-22.7 15.8.4 2.2 2 3.9 4.6 5 2.6 1.1 5.1 2.2 7.5 3.2 12.3 8 18.5 17.5 18.5 28.5 0 8.5-2.9 16.2-8.7 23.4-4.5 5.5-11.1 10.9-19.8 16.2l-21.4 12.5c-1.8 1-3.8 1.6-5.8 1.6-4.9 0-8.3-2-10.2-6l.9-37.2c.1-12.3 1-24.5 2.5-36.7-3.1-2.1-4.7-4.5-4.7-7.1 0-1.4.6-2.7 1.7-3.7 1.4-1.4 2.9-2.6 4.6-3.7 1.8-20.7 2.1-41.6 1.1-62.3-7-1.3-11.6-4.5-13.8-9.3-.1-1 .2-1.9.8-2.7.6-.9.9-1.9 1-2.9 3.3-2.5 7.3-3.8 11.3-3.8 3 0 9.8 1 20.5 2.9 6 1.1 11.8 3.1 17.1 6 16 8.3 25.4 16.4 28.3 24.3 1.8 5.5 2.3 10.3 1.4 14.2zm-27.6 76.1c.3-1.5.4-3.1.4-4.7 0-4.3-1.5-8.5-4.2-11.8-7.6-3.7-12.4-5.6-14.5-5.6-1.1 0-2.3.2-3.3.7.1 1.5.2 3.1.2 4.9-.1 4.8-.5 9.6-1.2 14.4-.7 4.8-1.1 9.7-1.2 14.6-.1 4.4.5 8.7 1.8 12.9 2.4-2.6 5.2-4.8 8.4-6.6 3.8-2.3 6.4-4.3 7.9-6.1 2.6-3.2 4.5-7.4 5.7-12.7zm6.7-87.3c-.7-5.5-5.2-9.7-13.4-12.7-1.9-.8-3.8-1.8-5.6-2.9-1.3-1-2.8-1.6-4.5-1.8-.7 0-1.4.2-2 .4-.2 2.5-.2 5.2-.2 8 0 3.9.3 10.4.9 19.6.5 8.5.6 15.1.5 19.8 1 0 2.6-.8 4.7-2.3 2.1-1.6 3.3-2.4 3.6-2.6 4.8-2.4 8.9-6 11.8-10.5 3.4-4.8 4.8-9.8 4.2-15zm92.2 9.6c-6.6 3-13.3 5.6-20.2 7.7-6.9 2.2-13.6 4.8-20.2 7.7-1.1 3.8-1.8 12.2-2.2 25.2 2.2.9 4.5 1.3 6.8 1.3a52 52 0 0 0 8.7-1.2c2.9-.6 5.8-1 8.7-1.2 3.2-.1 6.3.8 8.9 2.5 1.8 2.9 2.6 4.8 2.6 5.6 0 1-.5 1.9-1.3 2.4-.9.9-1.8 1.9-2.6 3a4.1 4.1 0 0 1-3.7 1.8c-2.6.7-7.4 1.2-14.3 1.4-5.8.2-10.4 1.1-13.9 2.7-2.3 10.7-3.4 19.2-3.3 25.4-.1 3.4.4 6.8 1.5 10 5.8 4.7 15.9 6.7 30.3 5.9 1.2-.1 2.3-.7 3.1-1.6.7-.9 1.7-1.4 2.8-1.6 3.5-.9 5.8 2.1 6.9 9.1.4 2.2 0 4.4-1 6.4-.8 1.8-2.5 3-4.5 3.2-15 .7-28-.6-39-3.9-3.8-1.2-7.1-3.5-9.5-6.6-2.8-3.3-4.5-7.4-4.9-11.7-1.2-11.2-1.3-22.6-.2-33.8-3.5-2.7-5-5.4-4.7-8 .1-1.3 1.1-2.5 2.9-3.6 1.8-1.1 2.8-2.2 3-3.4.3-1.2.8-8 1.4-20.6-6.9-1.5-10.4-4.5-10.3-9 .1-4.2 2.2-7.5 6.4-10l11.8-5.8c5.5-3.1 11.3-5.7 17.4-7.5 5.9-1.9 11.9-3.8 18-5.6.7-.2 1.5-.2 2.2-.2 3.3 0 7.2 1.5 11.7 4.5.1.6.4 1.7 1 3.2.4 1.1.7 2.3.8 3.5.2 1-.2 2.1-1.1 2.8zm79.3 90.5c.7 1.7 1.1 3.5 1.1 5.3 0 2.6-1.2 5-3.2 6.6-2.1 1.9-3.5 2.8-4.3 2.6-6.1-1.1-10-6.1-11.6-14.9-1.4-8.2-3.4-16.2-6.2-24l-12.7 1.1c-4.9.6-8.7 2.1-11.4 4.5-1.4 3.9-3.2 10.8-5.4 20.8-2.1 9.2-4.2 16.2-6.2 21-1 2.3-3.1 2.9-6.4 1.9-4.1-1.4-6.3-3.3-6.5-5.7-.4-4.8 1-11.2 4.1-19.3 3.7-9.2 5.8-15.8 6.2-19.7.1-1.1-.7-2.4-2.4-3.8s-2.6-2.5-2.6-3.2c0-.7.3-1.5.8-2 .6-.7 1.9-1.3 3.9-1.7s3.2-1.1 3.5-2c2.2-6.3 5.8-18 10.6-35.2 4.1-14.9 7.8-26.3 11-34.2.7-1.8 2.3-2.7 4.7-2.7 1.7 0 3.4.6 4.7 1.7 3.5 3 5.7 7.6 6.7 13.6.7 5.2 1.4 10.3 2 15.5 6.4 30 12.9 54.5 19.6 73.8zm-27.3-36.1c-.5-5.3-1.3-10.5-2.4-15.7-1.2-5-2.4-10.1-3.5-15.1-3.7 10.5-7 20.9-9.7 31.4 2-.4 7.2-.6 15.6-.6zM625.6 185c.4.5.6 1.1.6 1.7 0 3-3.3 5.2-9.8 6.8-7.2-5.3-16.1-13.5-26.8-24.4-11.9-12.3-20.8-20.8-26.7-25.6-.4 3.3-1.1 12.1-2.2 26.3-.7 10.7-1.9 19.2-3.7 25.5-.9.2-1.7.6-2.5 1-1.1.6-2.3.8-3.6.6-6-1.3-9-5.2-9-11.8.1-2.6.3-5.2.8-7.8.5-3.7.9-6.1 1-7 .5-7.5.9-16.4 1-26.7v-21.1c0-17.5 1-32.3 3-44.3 1.3-8 9.3-11.7 23.8-11 7.3.3 13.7 3.8 19.1 10.5 5 6.2 7.5 12.9 7.5 20.1 0 6.1-2.4 12.1-7.1 18.2-4 5.3-9.1 9.7-15 12.8-2.4 1.3-3.7 2.7-3.7 4.3 0 1.7 1.4 3.7 4.3 6l6.5 5c.1.1 7.6 6.6 22.4 19.4 9.5 8 16.2 15.1 20.1 21.5zm-42.9-86.9c.4-2 .5-4.1.4-6.2-.4-2.8-1.7-5.3-3.6-7.3-2-2.2-5.1-3.3-9.5-3.3-3.2 0-5.3 1-6.1 2.9-.7 3.6-1 7.3-1 11 0 1.7.2 6 .6 13a94 94 0 0 1 0 13c11.3-8.1 17.7-15.8 19.2-23.1z" class="st0"/>
  <path d="M660.5 44.3c0 3.1-2.2 5.8-6.5 8.2-1.2.6-2.5.7-3.8.2-2.1-.6-3.2-.9-3.3-.9-1 .1-2 .6-2.7 1.4-8 8.4-12 18.7-12 30.8 0 4.3.6 8.6 2 12.6.6 1.7 6.2 13.8 16.9 36.2 7.1 14.9 10.7 27.6 10.7 38.1 0 8.6-2.1 17.1-6 24.8-1.3 2.7-4.7 6.1-10 10.3-4.3 3.3-8.2 4.9-11.6 4.9-1.3 0-2.6-.2-3.8-.7-4.4-2-6.7-4.6-6.7-7.7 0-1.9 1.1-4.1 3.3-6.8.6-.8 2-1.2 4.2-1.4a5 5 0 0 0 4.5-2.8c3.1-6.6 4.6-13.7 4.7-21 0-10.1-4.8-24.8-14.4-44.1-9.6-19.2-14.4-34.6-14.4-46.2-.2-8.8 1.7-17.5 5.3-25.5 4-8.6 9.7-14.7 17.1-18.5 3.1-1.6 6.5-2.5 10-2.6 6.2 0 10.9 1.8 14 5.4 1.6 1.6 2.4 3.4 2.5 5.3z" class="st0"/>
  <path d="M750.4 75.4c-1.3 4.4-3.5 6.9-6.6 7.6-8.1 1.7-22.2 3.8-42.2 6.3-3.6 30.7-5.7 56.3-6.5 76.8-.3 7.8-.4 15.5-.5 23 .1 1.8-.1 3.6-.6 5.4-.7 2-1.9 2.8-3.8 2.6-3.5-.2-6.7-2-8.7-4.9-2.2-2.8-3.4-6.3-3.5-9.9-.1-4.6 0-9.4.1-14.5.3-8.2 1.3-21 3-38.7 1.7-16.9 2.7-29.8 2.9-38.7-4.6-.3-9.3-.2-13.9.4-4.7.6-9.4 1-14.1 1-6.1-.2-10.9-2-14.7-5.4-1.4-3.3-2-5-2-5.1.1-1.1.6-2 1.4-2.8 4-1.2 12.1-2.2 24.4-2.9 10.8-.7 18.9-2.4 24.3-5.1 4.7 1.7 9.7 2.7 14.8 2.8 5.4.2 10.8-.3 16-1.5 3.8-.5 7.6-1.2 11.4-2.2 3.7-.9 7.4-1.2 11.2-.7 2.2.1 3.1 1 2.7 2.9 3.4.2 5 1.3 4.9 3.6zm65-.1c-.9 9.3-3.5 21.7-7.7 37.2-5.8 20.8-9.1 33.4-10 37.7a96.5 96.5 0 0 1-16.2 36.6c-5 7-10.8 10.5-17.4 10.3-5.8-.1-10.1-3.9-12.9-11.3-4.9-12.4-7.3-27.1-7.3-43.9.2-12.5 1.1-25 2.7-37.3-.1 1.3-.2-2.8-.2-12.3 0-8.2 3.1-12.3 9.3-12.3 1.4 0 2.9.4 4.2 1.1 1.5.7 2.9 1.5 4.3 2.3.1 6.8-.1 16.7-.6 29.8-.7 14-1 24.2-1 30.4 0 6.6.2 12.7.6 18.1.3 2.8 1.4 8.1 3.5 15.9 5.4-6.2 9.7-14.5 12.7-24.8 1-3.4 3.1-12.8 6.2-28.2 2.5-11.6 5.2-20.8 8.3-27.4.9-1.9 1.7-5.4 2.3-10.5s1.4-8.7 2.3-10.7c1.2-3 4.1-4.9 7.3-4.8 4.5-.3 7.7 1.2 9.6 4.1zm60.5 65c-1.4 3.3-2.7 6.5-3.9 9.8a36.1 36.1 0 0 1-5.3 9.1c-4.2 5.5-8.3 10.9-12.5 16.3-5 6.5-9.5 11-13.5 13.5a94.7 94.7 0 0 1-4.4 5.3c-1.6 1.8-3.2 2.7-4.8 2.7-1 0-1.9-.3-2.8-.7-1.1-.4-2.2-1-3.5-1.5a5.1 5.1 0 0 1-2.7-2.7c-.3-6-.5-12.3-.4-19.1.1-6.9.4-17.3 1.1-31.1.6-13.8 1-24.1 1.1-31 .1-9.2-.2-17.7-.8-25.3l-4.3-4.9c-1.7-1.9-2.6-3.6-2.5-5.1 0-.8.1-1.5.4-2.2.7-1.7 2.1-2.7 4.4-2.9a46 46 0 0 1 5.2-.6c11.1 2.7 22.8 9.4 34.9 20.3 3 2.6 5.6 5.7 7.7 9 6.3 10.1 9.4 19.6 9.3 28.4-.1 4.2-1 8.6-2.7 12.7zm-14.2-22.9c-1.1-8.9-8.2-16.9-21.1-23.8-1.1 23.7-1.6 48.8-1.5 75.3 15.2-15.9 22.8-31.1 22.9-45.5.1-2 0-4-.3-6zm42.1-38.7c.3 4.2.4 8.5.4 12.9 0 9.8-1 24.5-3 44.1s-3 34.5-3 44.6c0 3.7.1 7.4.2 11-1.3 4-4.1 5.9-8.4 5.8-6.2-.3-9.6-3-10.1-8-.6-5.3-.9-10.6-.9-15.9 0-9.8 1.2-24.3 3.6-43.7s3.5-33.9 3.5-43.4c0-3.7-.1-7.4-.4-11 1.4-2.7 3.9-4.1 7.3-4.1 2.9 0 5.7.9 8.2 2.4.4-.3.8-.6 1.3-.7.4 0 .6.7.6 2.2-.2 1-.2 2 0 3 .2.3.4.6.7.8zm89.4 74.6c-10.1 24.1-24.3 38.5-42.7 43-2.2.5-4.4.8-6.6.8-9.7 0-19.5-5.6-29.4-16.9-6.7-7.6-10-17.5-10-29.6 0-13.4 3.8-27.8 11.2-43.2 3-6.2 7-11.9 11.8-16.9 5.3-5.7 10.3-8.5 15.1-8.5 2.9.1 5.6 1.2 7.7 3.3 2.4 2.2 8.8 5.1 19.2 8.7 8.2 2.9 14 7.8 17.4 14.7 6 12.1 9 22.6 9 31.3-.1 4.5-1 9.1-2.7 13.3zm-20.5-16.9c-1.2-13.2-4.5-21.1-10-23.7-.7-.3-1.5-.5-2.3-.5-2.1 0-4.6 1.8-7.7 5.4-3.4 4.2-6.1 6.6-7.9 7.3-1.2.6-2.9 0-5.1-1.6s-3.7-2.4-4.3-2.4c-.5 0-1 .2-1.3.5-6 5.4-8.9 13.9-8.9 25.3 0 7.8 1.7 14.4 5.1 19.9 4.8 7.4 8.8 11.1 12 11.1 7.5 0 14.7-5 21.7-15 6.7-9.3 9.6-18.1 8.7-26.3z" class="st0"/>
</svg>