<svg xmlns="http://www.w3.org/2000/svg" data-name="One-Prepaid" width="227" height="40" viewBox="0 0 1499.17 264">
  <defs>
    <linearGradient id="a" x1="-10.81" x2="1468.53" y1="132" y2="132" gradientUnits="userSpaceOnUse">
      <stop offset="0" stop-color="#eb7328"/>
      <stop offset=".18" stop-color="#e96b29"/>
      <stop offset=".47" stop-color="#e2542d"/>
      <stop offset=".83" stop-color="#d73034"/>
      <stop offset="1" stop-color="#d11c37"/>
    </linearGradient>
  </defs>
  <path fill="#232b51" d="M172.21 211.26v-32.13h33.66v-65.74l-33.66-.14L242.84 56v123.1h30.09v32.13Z"/>
  <path fill="url(#a)" d="M8.78 136.37a69 69 0 0 1 5.56-27.67 70.23 70.23 0 0 1 15.23-22.37 71.26 71.26 0 0 1 23-15.09 74.65 74.65 0 0 1 29-5.57 76.59 76.59 0 0 1 29 5.43 71.21 71.21 0 0 1 23.16 15A67.14 67.14 0 0 1 149 108.57a73.88 73.88 0 0 1 0 55.6 67.18 67.18 0 0 1-15.22 22.51 71.16 71.16 0 0 1-23.16 14.95 76.4 76.4 0 0 1-29 5.43 76.28 76.28 0 0 1-29-5.43 69.75 69.75 0 0 1-43.84-65.26Zm36.8 0a47.07 47.07 0 0 0 2.52 15.49 38.59 38.59 0 0 0 7.15 12.7A32 32 0 0 0 66.63 173a36 36 0 0 0 15 3 35.71 35.71 0 0 0 15.09-3 32.26 32.26 0 0 0 11.26-8.48 39.13 39.13 0 0 0 7.15-12.7 49.45 49.45 0 0 0 0-31.11 39.61 39.61 0 0 0-7.15-12.58 32.48 32.48 0 0 0-11.3-8.43 35.71 35.71 0 0 0-15.09-3 36 36 0 0 0-15 3 32.19 32.19 0 0 0-11.38 8.47 39 39 0 0 0-7.15 12.58 46.69 46.69 0 0 0-2.48 15.62Zm411.71 67.51a90.73 90.73 0 0 1-31.5-5.16 72.38 72.38 0 0 1-24-14.17 60.69 60.69 0 0 1-15.22-21.44 67.59 67.59 0 0 1-5.29-26.74 79.94 79.94 0 0 1 5-29.13 65.36 65.36 0 0 1 14-22.23 62.3 62.3 0 0 1 21.18-14.3 68.77 68.77 0 0 1 26.48-5q16.94 0 29.12 5.57a54.09 54.09 0 0 1 20 15.22 63.66 63.66 0 0 1 11.6 22.5 98.51 98.51 0 0 1 3.7 27.41q0 2.91-.26 6.35a28.82 28.82 0 0 1-.79 5.3H420q2.91 12.45 13 18.66t24.88 6.23h37.6v31Zm18.8-80.22q-1.32-13-8.21-20.52t-19.59-7.54a27.94 27.94 0 0 0-11.78 2.4 25.37 25.37 0 0 0-8.61 6.36 31.09 31.09 0 0 0-5.42 9 46.86 46.86 0 0 0-2.78 10.33ZM536.72 139a87.19 87.19 0 0 1 5-30.32 65 65 0 0 1 14.3-23.17 63 63 0 0 1 22.37-14.69 79.84 79.84 0 0 1 29.52-5.17q17.22 0 30.45 5.43a63 63 0 0 1 22.24 15 65.08 65.08 0 0 1 13.77 22.5 80.18 80.18 0 0 1 4.76 27.8 82.14 82.14 0 0 1-4.9 29 65.38 65.38 0 0 1-13.63 22.37A60.18 60.18 0 0 1 640 202a66.11 66.11 0 0 1-26 5 54.75 54.75 0 0 1-23.83-5.29A41.16 41.16 0 0 1 573 187.2v70.43h-36.28Zm36.8-2.65a49.49 49.49 0 0 0 2.39 15.49 39.65 39.65 0 0 0 6.75 12.7 30 30 0 0 0 10.85 8.46 35.77 35.77 0 0 0 28.86 0 30.12 30.12 0 0 0 10.86-8.48 39.65 39.65 0 0 0 6.75-12.7 52 52 0 0 0 0-31.11 40.11 40.11 0 0 0-6.75-12.58 30.32 30.32 0 0 0-10.86-8.47 35.77 35.77 0 0 0-28.86 0 30.2 30.2 0 0 0-10.85 8.47 40.11 40.11 0 0 0-6.75 12.58 49.1 49.1 0 0 0-2.39 15.66Zm167.07 67.51h-36.28v-96.62q0-18 10.06-28.2t28.33-10.18H780v31h-31a8.16 8.16 0 0 0-8.47 8.48Zm127.34 0a90.73 90.73 0 0 1-31.5-5.16 72.38 72.38 0 0 1-24-14.17 60.69 60.69 0 0 1-15.22-21.44 67.59 67.59 0 0 1-5.21-26.72 79.94 79.94 0 0 1 5-29.13A65.36 65.36 0 0 1 811 85a62.3 62.3 0 0 1 21.18-14.3 68.77 68.77 0 0 1 26.48-5q16.94 0 29.12 5.57a54.09 54.09 0 0 1 20 15.22A63.5 63.5 0 0 1 919.3 109a98.51 98.51 0 0 1 3.7 27.41q0 2.91-.26 6.35A28.82 28.82 0 0 1 922 148h-91.4q2.91 12.45 13 18.66t24.88 6.23h37.6v31Zm18.8-80.22q-1.32-13-8.21-20.52t-19.59-7.52a27.94 27.94 0 0 0-11.78 2.4 25.37 25.37 0 0 0-8.61 6.36 31.09 31.09 0 0 0-5.42 9 46.86 46.86 0 0 0-2.78 10.33ZM947.36 139a87.19 87.19 0 0 1 5-30.32 65 65 0 0 1 14.3-23.17 63 63 0 0 1 22.37-14.69 79.84 79.84 0 0 1 29.52-5.17q17.22 0 30.45 5.43a63 63 0 0 1 22.24 15 65.08 65.08 0 0 1 13.77 22.5 80.18 80.18 0 0 1 4.76 27.8 82.14 82.14 0 0 1-4.9 29 65.38 65.38 0 0 1-13.63 22.37 60.18 60.18 0 0 1-20.65 14.3 66.11 66.11 0 0 1-25.95 5 54.75 54.75 0 0 1-23.83-5.29 41.07 41.07 0 0 1-17.2-14.57v70.43h-36.25Zm36.8-2.65a49.49 49.49 0 0 0 2.39 15.49 39.65 39.65 0 0 0 6.75 12.7 30.09 30.09 0 0 0 10.85 8.48 35.77 35.77 0 0 0 28.86 0 30.12 30.12 0 0 0 10.86-8.48 39.65 39.65 0 0 0 6.75-12.7 52 52 0 0 0 0-31.11 40.11 40.11 0 0 0-6.75-12.58A30.32 30.32 0 0 0 1033 99.7a35.77 35.77 0 0 0-28.86 0 30.28 30.28 0 0 0-10.85 8.47 40.11 40.11 0 0 0-6.75 12.58 49.1 49.1 0 0 0-2.38 15.62Zm230.34 67.51v-22.5a51.49 51.49 0 0 1-17.73 18.26q-11.65 7.41-27.28 7.42a58.27 58.27 0 0 1-25.94-5.56 56.72 56.72 0 0 1-19.2-15.09 67.18 67.18 0 0 1-11.91-22.39 89.41 89.41 0 0 1-4.11-27.41 80 80 0 0 1 4.77-27.8 64.05 64.05 0 0 1 13.9-22.5 65.35 65.35 0 0 1 22.51-15.09q13.37-5.56 30.84-5.57t30.71 5.57a60.86 60.86 0 0 1 22 15.22 65.8 65.8 0 0 1 13.24 22.5 83.41 83.41 0 0 1 4.5 27.67v67.25Zm-69.36-67.78a50.7 50.7 0 0 0 2.38 15.63 36.62 36.62 0 0 0 6.88 12.7 34.11 34.11 0 0 0 10.86 8.48 32.09 32.09 0 0 0 14.56 3.17 31.51 31.51 0 0 0 14.3-3.17 32.71 32.71 0 0 0 10.72-8.48 37.94 37.94 0 0 0 6.75-12.7 50.7 50.7 0 0 0 2.41-15.61 48.25 48.25 0 0 0-2.38-15.35 40.11 40.11 0 0 0-6.75-12.58 30.62 30.62 0 0 0-10.72-8.47 32.68 32.68 0 0 0-14.3-3 33.28 33.28 0 0 0-14.56 3 31.86 31.86 0 0 0-10.86 8.47 38.63 38.63 0 0 0-6.88 12.58 48.25 48.25 0 0 0-2.41 15.35Zm135.55-107a21.24 21.24 0 0 1 1.86-8.87 23.54 23.54 0 0 1 12-12 22.19 22.19 0 0 1 17.74 0 23.61 23.61 0 0 1 12.05 12 21.39 21.39 0 0 1 1.85 8.87 21.42 21.42 0 0 1-1.85 8.87A23.61 23.61 0 0 1 1312.29 50a22.19 22.19 0 0 1-17.74 0 23.54 23.54 0 0 1-12-12.05 21.27 21.27 0 0 1-1.86-8.81Zm4.5 39.72h36.54v135h-36.54Zm205.19 64.86a87.19 87.19 0 0 1-5 30.32 65 65 0 0 1-14.29 23.16 62.85 62.85 0 0 1-22.38 14.7 80 80 0 0 1-29.52 5.16q-17 0-30.31-5.43a62.6 62.6 0 0 1-22.38-14.95 65 65 0 0 1-13.76-22.51 80 80 0 0 1-4.77-27.8 82.1 82.1 0 0 1 4.9-29 65.54 65.54 0 0 1 13.6-22.31 60.22 60.22 0 0 1 20.66-14.3 66.07 66.07 0 0 1 25.94-5 54.87 54.87 0 0 1 23.83 5.3 41.28 41.28 0 0 1 17.21 14.56V10.61h36.27Zm-36.8 2.65a49.1 49.1 0 0 0-2.38-15.62 40.11 40.11 0 0 0-6.75-12.58 30.32 30.32 0 0 0-10.86-8.47 35.77 35.77 0 0 0-28.86 0 30.28 30.28 0 0 0-10.85 8.47 39.7 39.7 0 0 0-6.75 12.58 51.81 51.81 0 0 0 0 31.11 39.27 39.27 0 0 0 6.75 12.7 30.09 30.09 0 0 0 10.85 8.48 35.77 35.77 0 0 0 28.86 0 30.12 30.12 0 0 0 10.86-8.48 39.65 39.65 0 0 0 6.75-12.7 49.49 49.49 0 0 0 2.38-15.43ZM354.85 121.29c0-.45-.05-.89-.06-1.33a61.58 61.58 0 0 0-4.19-17.21 57.75 57.75 0 0 0-5.2-9.89 47.64 47.64 0 0 0-84.55 16.94 38.36 38.36 0 0 1 22.07-12.44 29.34 29.34 0 0 1 6.25-.69c.22 0 .41.06.63.06h.48a7.81 7.81 0 0 1 .84.17 28.18 28.18 0 0 1 9.57 2.1 29.83 29.83 0 0 1 15.75 15.75 28.34 28.34 0 0 1 2.39 11.52v77.57h36.27v-77.53c0-1.7-.1-3.31-.25-5.02Z"/>
</svg>